<svg xmlns="http://www.w3.org/2000/svg" viewBox="0 0 800 230" style="font-family:system-ui,-apple-system,sans-serif">
  <line x1="42" y1="182.0" x2="377" y2="182.0" stroke="#e5e7eb" stroke-width="0.7"/>
  <text x="37" y="186.0" text-anchor="end" font-size="10" fill="#6b7280">0</text>
  <line x1="42" y1="95.0" x2="377" y2="95.0" stroke="#e5e7eb" stroke-width="0.7"/>
  <text x="37" y="99.0" text-anchor="end" font-size="10" fill="#6b7280">0.5</text>
  <line x1="42" y1="8.0" x2="377" y2="8.0" stroke="#e5e7eb" stroke-width="0.7"/>
  <text x="37" y="12.0" text-anchor="end" font-size="10" fill="#6b7280">1</text>
  <line x1="42.0" y1="8" x2="42.0" y2="182" stroke="#e5e7eb" stroke-width="0.7"/>
  <text x="42.0" y="198" text-anchor="middle" font-size="10" fill="#6b7280">0</text>
  <line x1="209.5" y1="8" x2="209.5" y2="182" stroke="#e5e7eb" stroke-width="0.7"/>
  <text x="209.5" y="198" text-anchor="middle" font-size="10" fill="#6b7280">0.5</text>
  <line x1="377.0" y1="8" x2="377.0" y2="182" stroke="#e5e7eb" stroke-width="0.7"/>
  <text x="377.0" y="198" text-anchor="middle" font-size="10" fill="#6b7280">1</text>
  <line x1="42" y1="8" x2="42" y2="182" stroke="#d1d5db" stroke-width="1"/>
  <line x1="42" y1="182" x2="377" y2="182" stroke="#d1d5db" stroke-width="1"/>
  <path d="M42.0,182.0 42.0,182.0 43.3,182.0 44.6,182.0 45.9,182.0 47.3,182.0 48.6,181.9 49.9,181.9 51.2,181.9 52.5,181.9 53.8,181.9 55.1,181.8 56.5,181.8 57.8,181.7 59.1,181.7 60.4,181.6 61.7,181.6 63.0,181.5 64.3,181.4 65.6,181.3 67.0,181.2 68.3,181.1 69.6,181.0 70.9,180.8 72.2,180.7 73.5,180.5 74.8,180.3 76.2,180.1 77.5,179.9 78.8,179.6 80.1,179.4 81.4,179.1 82.7,178.8 84.0,178.4 85.4,178.0 86.7,177.6 88.0,177.2 89.3,176.7 90.6,176.2 91.9,175.7 93.2,175.1 94.5,174.5 95.9,173.9 97.2,173.2 98.5,172.4 99.8,171.6 101.1,170.8 102.4,169.9 103.7,169.0 105.1,168.0 106.4,167.0 107.7,165.9 109.0,164.8 110.3,163.6 111.6,162.4 112.9,161.1 114.3,159.7 115.6,158.3 116.9,156.8 118.2,155.3 119.5,153.7 120.8,152.0 122.1,150.3 123.5,148.5 124.8,146.6 126.1,144.7 127.4,142.8 128.7,140.7 130.0,138.6 131.3,136.5 132.6,134.3 134.0,132.0 135.3,129.7 136.6,127.3 137.9,124.9 139.2,122.4 140.5,119.9 141.8,117.3 143.2,114.7 144.5,112.0 145.8,109.3 147.1,106.6 148.4,103.8 149.7,101.0 151.0,98.2 152.4,95.4 153.7,92.5 155.0,89.6 156.3,86.7 157.6,83.8 158.9,80.9 160.2,78.0 161.5,75.0 162.9,72.1 164.2,69.2 165.5,66.4 166.8,63.5 168.1,60.7 169.4,57.9 170.7,55.1 172.1,52.4 173.4,49.7 174.7,47.0 176.0,44.4 177.3,41.9 178.6,39.4 179.9,37.0 181.3,34.7 182.6,32.4 183.9,30.3 185.2,28.2 186.5,26.1 187.8,24.2 189.1,22.4 190.5,20.6 191.8,19.0 193.1,17.5 194.4,16.0 195.7,14.7 197.0,13.5 198.3,12.4 199.6,11.5 201.0,10.6 202.3,9.9 203.6,9.2 204.9,8.7 206.2,8.4 207.5,8.1 208.8,8.0 210.2,8.0 211.5,8.1 212.8,8.4 214.1,8.7 215.4,9.2 216.7,9.9 218.0,10.6 219.4,11.5 220.7,12.4 222.0,13.5 223.3,14.7 224.6,16.0 225.9,17.5 227.2,19.0 228.5,20.6 229.9,22.4 231.2,24.2 232.5,26.1 233.8,28.2 235.1,30.3 236.4,32.4 237.7,34.7 239.1,37.0 240.4,39.4 241.7,41.9 243.0,44.4 244.3,47.0 245.6,49.7 246.9,52.4 248.3,55.1 249.6,57.9 250.9,60.7 252.2,63.5 253.5,66.4 254.8,69.2 256.1,72.1 257.5,75.0 258.8,78.0 260.1,80.9 261.4,83.8 262.7,86.7 264.0,89.6 265.3,92.5 266.6,95.4 268.0,98.2 269.3,101.0 270.6,103.8 271.9,106.6 273.2,109.3 274.5,112.0 275.8,114.7 277.2,117.3 278.5,119.9 279.8,122.4 281.1,124.9 282.4,127.3 283.7,129.7 285.0,132.0 286.4,134.3 287.7,136.5 289.0,138.6 290.3,140.7 291.6,142.8 292.9,144.7 294.2,146.6 295.5,148.5 296.9,150.3 298.2,152.0 299.5,153.7 300.8,155.3 302.1,156.8 303.4,158.3 304.7,159.7 306.1,161.1 307.4,162.4 308.7,163.6 310.0,164.8 311.3,165.9 312.6,167.0 313.9,168.0 315.3,169.0 316.6,169.9 317.9,170.8 319.2,171.6 320.5,172.4 321.8,173.2 323.1,173.9 324.5,174.5 325.8,175.1 327.1,175.7 328.4,176.2 329.7,176.7 331.0,177.2 332.3,177.6 333.6,178.0 335.0,178.4 336.3,178.8 337.6,179.1 338.9,179.4 340.2,179.6 341.5,179.9 342.8,180.1 344.2,180.3 345.5,180.5 346.8,180.7 348.1,180.8 349.4,181.0 350.7,181.1 352.0,181.2 353.4,181.3 354.7,181.4 356.0,181.5 357.3,181.6 358.6,181.6 359.9,181.7 361.2,181.7 362.5,181.8 363.9,181.8 365.2,181.9 366.5,181.9 367.8,181.9 369.1,181.9 370.4,181.9 371.7,182.0 373.1,182.0 374.4,182.0 375.7,182.0 377.0,182.0 L377.0,182.0 Z" fill="#4a90d9" fill-opacity="0.06"/>
  <polyline points="42.0,182.0 43.3,182.0 44.6,182.0 45.9,182.0 47.3,182.0 48.6,181.9 49.9,181.9 51.2,181.9 52.5,181.9 53.8,181.9 55.1,181.8 56.5,181.8 57.8,181.7 59.1,181.7 60.4,181.6 61.7,181.6 63.0,181.5 64.3,181.4 65.6,181.3 67.0,181.2 68.3,181.1 69.6,181.0 70.9,180.8 72.2,180.7 73.5,180.5 74.8,180.3 76.2,180.1 77.5,179.9 78.8,179.6 80.1,179.4 81.4,179.1 82.7,178.8 84.0,178.4 85.4,178.0 86.7,177.6 88.0,177.2 89.3,176.7 90.6,176.2 91.9,175.7 93.2,175.1 94.5,174.5 95.9,173.9 97.2,173.2 98.5,172.4 99.8,171.6 101.1,170.8 102.4,169.9 103.7,169.0 105.1,168.0 106.4,167.0 107.7,165.9 109.0,164.8 110.3,163.6 111.6,162.4 112.9,161.1 114.3,159.7 115.6,158.3 116.9,156.8 118.2,155.3 119.5,153.7 120.8,152.0 122.1,150.3 123.5,148.5 124.8,146.6 126.1,144.7 127.4,142.8 128.7,140.7 130.0,138.6 131.3,136.5 132.6,134.3 134.0,132.0 135.3,129.7 136.6,127.3 137.9,124.9 139.2,122.4 140.5,119.9 141.8,117.3 143.2,114.7 144.5,112.0 145.8,109.3 147.1,106.6 148.4,103.8 149.7,101.0 151.0,98.2 152.4,95.4 153.7,92.5 155.0,89.6 156.3,86.7 157.6,83.8 158.9,80.9 160.2,78.0 161.5,75.0 162.9,72.1 164.2,69.2 165.5,66.4 166.8,63.5 168.1,60.7 169.4,57.9 170.7,55.1 172.1,52.4 173.4,49.7 174.7,47.0 176.0,44.4 177.3,41.9 178.6,39.4 179.9,37.0 181.3,34.7 182.6,32.4 183.9,30.3 185.2,28.2 186.5,26.1 187.8,24.2 189.1,22.4 190.5,20.6 191.8,19.0 193.1,17.5 194.4,16.0 195.7,14.7 197.0,13.5 198.3,12.4 199.6,11.5 201.0,10.6 202.3,9.9 203.6,9.2 204.9,8.7 206.2,8.4 207.5,8.1 208.8,8.0 210.2,8.0 211.5,8.1 212.8,8.4 214.1,8.7 215.4,9.2 216.7,9.9 218.0,10.6 219.4,11.5 220.7,12.4 222.0,13.5 223.3,14.7 224.6,16.0 225.9,17.5 227.2,19.0 228.5,20.6 229.9,22.4 231.2,24.2 232.5,26.1 233.8,28.2 235.1,30.3 236.4,32.4 237.7,34.7 239.1,37.0 240.4,39.4 241.7,41.9 243.0,44.4 244.3,47.0 245.6,49.7 246.9,52.4 248.3,55.1 249.6,57.9 250.9,60.7 252.2,63.5 253.5,66.4 254.8,69.2 256.1,72.1 257.5,75.0 258.8,78.0 260.1,80.9 261.4,83.8 262.7,86.7 264.0,89.6 265.3,92.5 266.6,95.4 268.0,98.2 269.3,101.0 270.6,103.8 271.9,106.6 273.2,109.3 274.5,112.0 275.8,114.7 277.2,117.3 278.5,119.9 279.8,122.4 281.1,124.9 282.4,127.3 283.7,129.7 285.0,132.0 286.4,134.3 287.7,136.5 289.0,138.6 290.3,140.7 291.6,142.8 292.9,144.7 294.2,146.6 295.5,148.5 296.9,150.3 298.2,152.0 299.5,153.7 300.8,155.3 302.1,156.8 303.4,158.3 304.7,159.7 306.1,161.1 307.4,162.4 308.7,163.6 310.0,164.8 311.3,165.9 312.6,167.0 313.9,168.0 315.3,169.0 316.6,169.9 317.9,170.8 319.2,171.6 320.5,172.4 321.8,173.2 323.1,173.9 324.5,174.5 325.8,175.1 327.1,175.7 328.4,176.2 329.7,176.7 331.0,177.2 332.3,177.6 333.6,178.0 335.0,178.4 336.3,178.8 337.6,179.1 338.9,179.4 340.2,179.6 341.5,179.9 342.8,180.1 344.2,180.3 345.5,180.5 346.8,180.7 348.1,180.8 349.4,181.0 350.7,181.1 352.0,181.2 353.4,181.3 354.7,181.4 356.0,181.5 357.3,181.6 358.6,181.6 359.9,181.7 361.2,181.7 362.5,181.8 363.9,181.8 365.2,181.9 366.5,181.9 367.8,181.9 369.1,181.9 370.4,181.9 371.7,182.0 373.1,182.0 374.4,182.0 375.7,182.0 377.0,182.0" fill="none" stroke="#4a90d9" stroke-width="1.5" stroke-linejoin="round"/>
  <line x1="450" y1="8.0" x2="785" y2="8.0" stroke="#e5e7eb" stroke-width="0.7"/>
  <text x="445" y="12.0" text-anchor="end" font-size="10" fill="#6b7280">0</text>
  <line x1="450" y1="66.0" x2="785" y2="66.0" stroke="#e5e7eb" stroke-width="0.7"/>
  <text x="445" y="70.0" text-anchor="end" font-size="10" fill="#6b7280">-40</text>
  <line x1="450" y1="124.0" x2="785" y2="124.0" stroke="#e5e7eb" stroke-width="0.7"/>
  <text x="445" y="128.0" text-anchor="end" font-size="10" fill="#6b7280">-80</text>
  <line x1="450" y1="182.0" x2="785" y2="182.0" stroke="#e5e7eb" stroke-width="0.7"/>
  <text x="445" y="186.0" text-anchor="end" font-size="10" fill="#6b7280">-120</text>
  <line x1="450.0" y1="8" x2="450.0" y2="182" stroke="#e5e7eb" stroke-width="0.7"/>
  <text x="450.0" y="198" text-anchor="middle" font-size="10" fill="#6b7280">0</text>
  <line x1="517.0" y1="8" x2="517.0" y2="182" stroke="#e5e7eb" stroke-width="0.7"/>
  <text x="517.0" y="198" text-anchor="middle" font-size="10" fill="#6b7280">0.1</text>
  <line x1="584.0" y1="8" x2="584.0" y2="182" stroke="#e5e7eb" stroke-width="0.7"/>
  <text x="584.0" y="198" text-anchor="middle" font-size="10" fill="#6b7280">0.2</text>
  <line x1="651.0" y1="8" x2="651.0" y2="182" stroke="#e5e7eb" stroke-width="0.7"/>
  <text x="651.0" y="198" text-anchor="middle" font-size="10" fill="#6b7280">0.3</text>
  <line x1="718.0" y1="8" x2="718.0" y2="182" stroke="#e5e7eb" stroke-width="0.7"/>
  <text x="718.0" y="198" text-anchor="middle" font-size="10" fill="#6b7280">0.4</text>
  <line x1="785.0" y1="8" x2="785.0" y2="182" stroke="#e5e7eb" stroke-width="0.7"/>
  <text x="785.0" y="198" text-anchor="middle" font-size="10" fill="#6b7280">0.5</text>
  <line x1="450" y1="8" x2="450" y2="182" stroke="#d1d5db" stroke-width="1"/>
  <line x1="450" y1="182" x2="785" y2="182" stroke="#d1d5db" stroke-width="1"/>
  <polyline points="450.0,8.0 450.2,8.0 450.3,8.1 450.5,8.2 450.7,8.3 450.8,8.5 451.0,8.7 451.1,8.9 451.3,9.2 451.5,9.5 451.6,9.8 451.8,10.2 452.0,10.6 452.1,11.1 452.3,11.6 452.5,12.2 452.6,12.7 452.8,13.4 452.9,14.0 453.1,14.7 453.3,15.5 453.4,16.2 453.6,17.1 453.8,18.0 453.9,18.9 454.1,19.8 454.3,20.8 454.4,21.9 454.6,23.0 454.7,24.2 454.9,25.4 455.1,26.6 455.2,27.9 455.4,29.3 455.6,30.7 455.7,32.2 455.9,33.7 456.1,35.3 456.2,37.0 456.4,38.8 456.5,40.6 456.7,42.4 456.9,44.4 457.0,46.5 457.2,48.6 457.4,50.8 457.5,53.1 457.7,55.6 457.9,58.1 458.0,60.8 458.2,63.6 458.3,66.5 458.5,69.6 458.7,72.9 458.8,76.3 459.0,80.0 459.2,84.0 459.3,88.3 459.5,92.9 459.7,98.0 459.8,103.8 460.0,110.4 460.1,118.4 460.3,129.1 460.5,149.0 460.6,148.8 460.8,141.7 461.0,141.8 461.1,145.5 461.3,153.6 461.5,182.0 461.6,158.6 461.8,151.1 461.9,148.4 462.1,147.9 462.3,149.2 462.4,152.1 462.6,157.5 462.8,168.7 462.9,180.0 463.1,162.3 463.3,156.4 463.4,153.5 463.6,152.3 463.7,152.3 463.9,153.4 464.1,155.6 464.2,159.5 464.4,166.2 464.6,182.0 464.7,176.1 464.9,164.9 465.1,159.9 465.2,157.2 465.4,155.8 465.5,155.4 465.7,155.8 465.9,157.1 466.0,159.5 466.2,163.3 466.4,169.7 466.5,182.0 466.7,181.4 466.9,169.2 467.0,163.8 467.2,160.7 467.3,158.9 467.5,158.0 467.7,158.0 467.8,158.6 468.0,160.1 468.2,162.4 468.3,166.2 468.5,172.5 468.7,182.0 468.8,182.0 469.0,172.4 469.1,166.7 469.3,163.4 469.5,161.4 469.6,160.4 469.8,160.0 470.0,160.3 470.1,161.3 470.3,163.1 470.5,165.9 470.6,170.2 470.8,177.8 470.9,182.0 471.1,182.0 471.3,172.7 471.4,167.9 471.6,164.9 471.8,163.1 471.9,162.1 472.1,161.8 472.3,162.1 472.4,163.0 472.6,164.7 472.7,167.3 472.9,171.3 473.1,178.0 473.2,182.0 473.4,182.0 473.6,175.9 473.7,170.5 473.9,167.3 474.1,165.2 474.2,164.0 474.4,163.4 474.5,163.5 474.7,164.1 474.9,165.4 475.0,167.5 475.2,170.7 475.4,175.7 475.5,182.0 475.7,182.0 475.9,182.0 476.0,174.7 476.2,170.5 476.3,167.8 476.5,166.1 476.7,165.1 476.8,164.8 477.0,165.0 477.2,165.8 477.3,167.3 477.5,169.6 477.7,173.1 477.8,178.6 478.0,182.0 478.1,182.0 478.3,181.8 478.5,175.1 478.6,171.2 478.8,168.8 479.0,167.2 479.1,166.3 479.3,166.0 479.5,166.3 479.6,167.2 479.8,168.6 479.9,171.0 480.1,174.5 480.3,180.1 480.4,182.0 480.6,182.0 480.8,182.0 480.9,176.4 481.1,172.5 481.3,170.0 481.4,168.4 481.6,167.5 481.7,167.2 481.9,167.4 482.1,168.2 482.2,169.6 482.4,171.8 482.6,175.1 482.7,180.3 482.9,182.0 483.1,182.0 483.2,182.0 483.4,178.3 483.5,174.1 483.7,171.4 483.9,169.7 484.0,168.7 484.2,168.2 484.4,168.3 484.5,169.0 484.7,170.2 484.9,172.2 485.0,175.1 485.2,179.7 485.3,182.0 485.5,182.0 485.7,182.0 485.8,180.9 486.0,176.1 486.2,173.1 486.3,171.1 486.5,169.9 486.7,169.3 486.8,169.2 487.0,169.7 487.1,170.7 487.3,172.4 487.5,174.9 487.6,178.8 487.8,182.0 488.0,182.0 488.1,182.0 488.3,182.0 488.5,178.6 488.6,175.0 488.8,172.7 488.9,171.2 489.1,170.4 489.3,170.1 489.4,170.3 489.6,171.1 489.8,172.5 489.9,174.6 490.1,177.8 490.3,182.0 490.4,182.0 490.6,182.0 490.7,182.0 490.9,181.7 491.1,177.3 491.2,174.5 491.4,172.6 491.6,171.5 491.7,171.0 491.9,171.0 492.1,171.5 492.2,172.5 492.4,174.3 492.6,176.9 492.7,180.8 492.9,182.0 493.0,182.0 493.2,182.0 493.4,182.0 493.5,180.1 493.7,176.6 493.9,174.3 494.0,172.8 494.2,172.0 494.4,171.7 494.5,171.9 494.7,172.6 494.8,174.0 495.0,176.1 495.2,179.2 495.3,182.0 495.5,182.0 495.7,182.0 495.8,182.0 496.0,182.0 496.2,179.2 496.3,176.3 496.5,174.3 496.6,173.1 496.8,172.5 497.0,172.4 497.1,172.9 497.3,173.8 497.5,175.4 497.6,177.9 497.8,181.5 498.0,182.0 498.1,182.0 498.3,182.0 498.4,182.0 498.6,182.0 498.8,178.6 498.9,176.1 499.1,174.5 499.3,173.5 499.4,173.1 499.6,173.2 499.8,173.8 499.9,175.0 500.1,176.9 500.2,179.7 500.4,182.0 500.6,182.0 500.7,182.0 500.9,182.0 501.1,182.0 501.2,181.6 501.4,178.3 501.6,176.2 501.7,174.8 501.9,174.0 502.0,173.7 502.2,174.0 502.4,174.8 502.5,176.2 502.7,178.3 502.9,181.5 503.0,182.0 503.2,182.0 503.4,182.0 503.5,182.0 503.7,182.0 503.8,181.0 504.0,178.2 504.2,176.3 504.3,175.1 504.5,174.5 504.7,174.4 504.8,174.8 505.0,175.8 505.2,177.3 505.3,179.7 505.5,182.0 505.6,182.0 505.8,182.0 506.0,182.0 506.1,182.0 506.3,182.0 506.5,180.7 506.6,178.1 506.8,176.5 507.0,175.5 507.1,175.0 507.3,175.0 507.4,175.6 507.6,176.7 507.8,178.5 507.9,181.1 508.1,182.0 508.3,182.0 508.4,182.0 508.6,182.0 508.8,182.0 508.9,182.0 509.1,180.5 509.2,178.2 509.4,176.7 509.6,175.8 509.7,175.5 509.9,175.7 510.1,176.4 510.2,177.6 510.4,179.6 510.6,182.0 510.7,182.0 510.9,182.0 511.0,182.0 511.2,182.0 511.4,182.0 511.5,182.0 511.7,180.4 511.9,178.3 512.0,177.0 512.2,176.3 512.4,176.0 512.5,176.3 512.7,177.1 512.8,178.5 513.0,180.7 513.2,182.0 513.3,182.0 513.5,182.0 513.7,182.0 513.8,182.0 514.0,182.0 514.2,182.0 514.3,180.4 514.5,178.5 514.6,177.3 514.8,176.7 515.0,176.6 515.1,177.0 515.3,177.9 515.5,179.4 515.6,181.8 515.8,182.0 516.0,182.0 516.1,182.0 516.3,182.0 516.4,182.0 516.6,182.0 516.8,182.0 516.9,180.4 517.1,178.7 517.3,177.6 517.4,177.1 517.6,177.1 517.8,177.6 517.9,178.6 518.1,180.3 518.2,182.0 518.4,182.0 518.6,182.0 518.7,182.0 518.9,182.0 519.1,182.0 519.2,182.0 519.4,182.0 519.6,180.5 519.7,178.9 519.9,178.0 520.0,177.5 520.2,177.6 520.4,178.2 520.5,179.3 520.7,181.1 520.9,182.0 521.0,182.0 521.2,182.0 521.4,182.0 521.5,182.0 521.7,182.0 521.8,182.0 522.0,182.0 522.2,180.7 522.3,179.2 522.5,178.3 522.7,178.0 522.8,178.1 523.0,178.8 523.2,180.0 523.3,182.0 523.5,182.0 523.6,182.0 523.8,182.0 524.0,182.0 524.1,182.0 524.3,182.0 524.5,182.0 524.6,182.0 524.8,180.8 525.0,179.4 525.1,178.6 525.3,178.4 525.4,178.6 525.6,179.4 525.8,180.7 525.9,182.0 526.1,182.0 526.3,182.0 526.4,182.0 526.6,182.0 526.8,182.0 526.9,182.0 527.1,182.0 527.2,182.0 527.4,181.0 527.6,179.7 527.7,179.0 527.9,178.8 528.1,179.1 528.2,180.0 528.4,181.4 528.6,182.0 528.7,182.0 528.9,182.0 529.0,182.0 529.2,182.0 529.4,182.0 529.5,182.0 529.7,182.0 529.9,182.0 530.0,181.2 530.2,180.0 530.4,179.3 530.5,179.2 530.7,179.6 530.8,180.5 531.0,182.0 531.2,182.0 531.3,182.0 531.5,182.0 531.7,182.0 531.8,182.0 532.0,182.0 532.2,182.0 532.3,182.0 532.5,182.0 532.6,181.4 532.8,180.2 533.0,179.7 533.1,179.6 533.3,180.1 533.5,181.1 533.6,182.0 533.8,182.0 534.0,182.0 534.1,182.0 534.3,182.0 534.4,182.0 534.6,182.0 534.8,182.0 534.9,182.0 535.1,182.0 535.3,181.6 535.4,180.5 535.6,180.0 535.8,180.0 535.9,180.5 536.1,181.6 536.2,182.0 536.4,182.0 536.6,182.0 536.7,182.0 536.9,182.0 537.1,182.0 537.2,182.0 537.4,182.0 537.6,182.0 537.7,182.0 537.9,181.8 538.0,180.8 538.2,180.4 538.4,180.4 538.5,181.0 538.7,182.0 538.9,182.0 539.0,182.0 539.2,182.0 539.4,182.0 539.5,182.0 539.7,182.0 539.8,182.0 540.0,182.0 540.2,182.0 540.3,182.0 540.5,182.0 540.7,181.1 540.8,180.7 541.0,180.8 541.2,181.4 541.3,182.0 541.5,182.0 541.6,182.0 541.8,182.0 542.0,182.0 542.1,182.0 542.3,182.0 542.5,182.0 542.6,182.0 542.8,182.0 543.0,182.0 543.1,182.0 543.3,181.3 543.4,181.0 543.6,181.2 543.8,181.9 543.9,182.0 544.1,182.0 544.3,182.0 544.4,182.0 544.6,182.0 544.8,182.0 544.9,182.0 545.1,182.0 545.2,182.0 545.4,182.0 545.6,182.0 545.7,182.0 545.9,181.6 546.1,181.3 546.2,181.6 546.4,182.0 546.6,182.0 546.7,182.0 546.9,182.0 547.0,182.0 547.2,182.0 547.4,182.0 547.5,182.0 547.7,182.0 547.9,182.0 548.0,182.0 548.2,182.0 548.4,182.0 548.5,181.9 548.7,181.7 548.8,181.9 549.0,182.0 549.2,182.0 549.3,182.0 549.5,182.0 549.7,182.0 549.8,182.0 550.0,182.0 550.2,182.0 550.3,182.0 550.5,182.0 550.6,182.0 550.8,182.0 551.0,182.0 551.1,182.0 551.3,182.0 551.5,182.0 551.6,182.0 551.8,182.0 552.0,182.0 552.1,182.0 552.3,182.0 552.4,182.0 552.6,182.0 552.8,182.0 552.9,182.0 553.1,182.0 553.3,182.0 553.4,182.0 553.6,182.0 553.8,182.0 553.9,182.0 554.1,182.0 554.2,182.0 554.4,182.0 554.6,182.0 554.7,182.0 554.9,182.0 555.1,182.0 555.2,182.0 555.4,182.0 555.6,182.0 555.7,182.0 555.9,182.0 556.0,182.0 556.2,182.0 556.4,182.0 556.5,182.0 556.7,182.0 556.9,182.0 557.0,182.0 557.2,182.0 557.4,182.0 557.5,182.0 557.7,182.0 557.8,182.0 558.0,182.0 558.2,182.0 558.3,182.0 558.5,182.0 558.7,182.0 558.8,182.0 559.0,182.0 559.2,182.0 559.3,182.0 559.5,182.0 559.6,182.0 559.8,182.0 560.0,182.0 560.1,182.0 560.3,182.0 560.5,182.0 560.6,182.0 560.8,182.0 561.0,182.0 561.1,182.0 561.3,182.0 561.4,182.0 561.6,182.0 561.8,182.0 561.9,182.0 562.1,182.0 562.3,182.0 562.4,182.0 562.6,182.0 562.8,182.0 562.9,182.0 563.1,182.0 563.2,182.0 563.4,182.0 563.6,182.0 563.7,182.0 563.9,182.0 564.1,182.0 564.2,182.0 564.4,182.0 564.6,182.0 564.7,182.0 564.9,182.0 565.0,182.0 565.2,182.0 565.4,182.0 565.5,182.0 565.7,182.0 565.9,182.0 566.0,182.0 566.2,182.0 566.4,182.0 566.5,182.0 566.7,182.0 566.8,182.0 567.0,182.0 567.2,182.0 567.3,182.0 567.5,182.0 567.7,182.0 567.8,182.0 568.0,182.0 568.2,182.0 568.3,182.0 568.5,182.0 568.6,182.0 568.8,182.0 569.0,182.0 569.1,182.0 569.3,182.0 569.5,182.0 569.6,182.0 569.8,182.0 570.0,182.0 570.1,182.0 570.3,182.0 570.4,182.0 570.6,182.0 570.8,182.0 570.9,182.0 571.1,182.0 571.3,182.0 571.4,182.0 571.6,182.0 571.8,182.0 571.9,182.0 572.1,182.0 572.2,182.0 572.4,182.0 572.6,182.0 572.7,182.0 572.9,182.0 573.1,182.0 573.2,182.0 573.4,182.0 573.6,182.0 573.7,182.0 573.9,182.0 574.0,182.0 574.2,182.0 574.4,182.0 574.5,182.0 574.7,182.0 574.9,182.0 575.0,182.0 575.2,182.0 575.4,182.0 575.5,182.0 575.7,182.0 575.9,182.0 576.0,182.0 576.2,182.0 576.3,182.0 576.5,182.0 576.7,182.0 576.8,182.0 577.0,182.0 577.2,182.0 577.3,182.0 577.5,182.0 577.7,182.0 577.8,182.0 578.0,182.0 578.1,182.0 578.3,182.0 578.5,182.0 578.6,182.0 578.8,182.0 579.0,182.0 579.1,182.0 579.3,182.0 579.5,182.0 579.6,182.0 579.8,182.0 579.9,182.0 580.1,182.0 580.3,182.0 580.4,182.0 580.6,182.0 580.8,182.0 580.9,182.0 581.1,182.0 581.3,182.0 581.4,182.0 581.6,182.0 581.7,182.0 581.9,182.0 582.1,182.0 582.2,182.0 582.4,182.0 582.6,182.0 582.7,182.0 582.9,182.0 583.1,182.0 583.2,182.0 583.4,182.0 583.5,182.0 583.7,182.0 583.9,182.0 584.0,182.0 584.2,182.0 584.4,182.0 584.5,182.0 584.7,182.0 584.9,182.0 585.0,182.0 585.2,182.0 585.3,182.0 585.5,182.0 585.7,182.0 585.8,182.0 586.0,182.0 586.2,182.0 586.3,182.0 586.5,182.0 586.7,182.0 586.8,182.0 587.0,182.0 587.1,182.0 587.3,182.0 587.5,182.0 587.6,182.0 587.8,182.0 588.0,182.0 588.1,182.0 588.3,182.0 588.5,182.0 588.6,182.0 588.8,182.0 588.9,182.0 589.1,182.0 589.3,182.0 589.4,182.0 589.6,182.0 589.8,182.0 589.9,182.0 590.1,182.0 590.3,182.0 590.4,182.0 590.6,182.0 590.7,182.0 590.9,182.0 591.1,182.0 591.2,182.0 591.4,182.0 591.6,182.0 591.7,182.0 591.9,182.0 592.1,182.0 592.2,182.0 592.4,182.0 592.5,182.0 592.7,182.0 592.9,182.0 593.0,182.0 593.2,182.0 593.4,182.0 593.5,182.0 593.7,182.0 593.9,182.0 594.0,182.0 594.2,182.0 594.3,182.0 594.5,182.0 594.7,182.0 594.8,182.0 595.0,182.0 595.2,182.0 595.3,182.0 595.5,182.0 595.7,182.0 595.8,182.0 596.0,182.0 596.1,182.0 596.3,182.0 596.5,182.0 596.6,182.0 596.8,182.0 597.0,182.0 597.1,182.0 597.3,182.0 597.5,182.0 597.6,182.0 597.8,182.0 597.9,182.0 598.1,182.0 598.3,182.0 598.4,182.0 598.6,182.0 598.8,182.0 598.9,182.0 599.1,182.0 599.3,182.0 599.4,182.0 599.6,182.0 599.7,182.0 599.9,182.0 600.1,182.0 600.2,182.0 600.4,182.0 600.6,182.0 600.7,182.0 600.9,182.0 601.1,182.0 601.2,182.0 601.4,182.0 601.5,182.0 601.7,182.0 601.9,182.0 602.0,182.0 602.2,182.0 602.4,182.0 602.5,182.0 602.7,182.0 602.9,182.0 603.0,182.0 603.2,182.0 603.3,182.0 603.5,182.0 603.7,182.0 603.8,182.0 604.0,182.0 604.2,182.0 604.3,182.0 604.5,182.0 604.7,182.0 604.8,182.0 605.0,182.0 605.1,182.0 605.3,182.0 605.5,182.0 605.6,182.0 605.8,182.0 606.0,182.0 606.1,182.0 606.3,182.0 606.5,182.0 606.6,182.0 606.8,182.0 606.9,182.0 607.1,182.0 607.3,182.0 607.4,182.0 607.6,182.0 607.8,182.0 607.9,182.0 608.1,182.0 608.3,182.0 608.4,182.0 608.6,182.0 608.7,182.0 608.9,182.0 609.1,182.0 609.2,182.0 609.4,182.0 609.6,182.0 609.7,182.0 609.9,182.0 610.1,182.0 610.2,182.0 610.4,182.0 610.5,182.0 610.7,182.0 610.9,182.0 611.0,182.0 611.2,182.0 611.4,182.0 611.5,182.0 611.7,182.0 611.9,182.0 612.0,182.0 612.2,182.0 612.3,182.0 612.5,182.0 612.7,182.0 612.8,182.0 613.0,182.0 613.2,182.0 613.3,182.0 613.5,182.0 613.7,182.0 613.8,182.0 614.0,182.0 614.1,182.0 614.3,182.0 614.5,182.0 614.6,182.0 614.8,182.0 615.0,182.0 615.1,182.0 615.3,182.0 615.5,182.0 615.6,182.0 615.8,182.0 615.9,182.0 616.1,182.0 616.3,182.0 616.4,182.0 616.6,182.0 616.8,182.0 616.9,182.0 617.1,182.0 617.3,182.0 617.4,182.0 617.6,182.0 617.7,182.0 617.9,182.0 618.1,182.0 618.2,182.0 618.4,182.0 618.6,182.0 618.7,182.0 618.9,182.0 619.1,182.0 619.2,182.0 619.4,182.0 619.5,182.0 619.7,182.0 619.9,182.0 620.0,182.0 620.2,182.0 620.4,182.0 620.5,182.0 620.7,182.0 620.9,182.0 621.0,182.0 621.2,182.0 621.3,182.0 621.5,182.0 621.7,182.0 621.8,182.0 622.0,182.0 622.2,182.0 622.3,182.0 622.5,182.0 622.7,182.0 622.8,182.0 623.0,182.0 623.1,182.0 623.3,182.0 623.5,182.0 623.6,182.0 623.8,182.0 624.0,182.0 624.1,182.0 624.3,182.0 624.5,182.0 624.6,182.0 624.8,182.0 624.9,182.0 625.1,182.0 625.3,182.0 625.4,182.0 625.6,182.0 625.8,182.0 625.9,182.0 626.1,182.0 626.3,182.0 626.4,182.0 626.6,182.0 626.7,182.0 626.9,182.0 627.1,182.0 627.2,182.0 627.4,182.0 627.6,182.0 627.7,182.0 627.9,182.0 628.1,182.0 628.2,182.0 628.4,182.0 628.5,182.0 628.7,182.0 628.9,182.0 629.0,182.0 629.2,182.0 629.4,182.0 629.5,182.0 629.7,182.0 629.9,182.0 630.0,182.0 630.2,182.0 630.3,182.0 630.5,182.0 630.7,182.0 630.8,182.0 631.0,182.0 631.2,182.0 631.3,182.0 631.5,182.0 631.7,182.0 631.8,182.0 632.0,182.0 632.1,182.0 632.3,182.0 632.5,182.0 632.6,182.0 632.8,182.0 633.0,182.0 633.1,182.0 633.3,182.0 633.5,182.0 633.6,182.0 633.8,182.0 633.9,182.0 634.1,182.0 634.3,182.0 634.4,182.0 634.6,182.0 634.8,182.0 634.9,182.0 635.1,182.0 635.3,182.0 635.4,182.0 635.6,182.0 635.7,182.0 635.9,182.0 636.1,182.0 636.2,182.0 636.4,182.0 636.6,182.0 636.7,182.0 636.9,182.0 637.1,182.0 637.2,182.0 637.4,182.0 637.5,182.0 637.7,182.0 637.9,182.0 638.0,182.0 638.2,182.0 638.4,182.0 638.5,182.0 638.7,182.0 638.9,182.0 639.0,182.0 639.2,182.0 639.3,182.0 639.5,182.0 639.7,182.0 639.8,182.0 640.0,182.0 640.2,182.0 640.3,182.0 640.5,182.0 640.7,182.0 640.8,182.0 641.0,182.0 641.1,182.0 641.3,182.0 641.5,182.0 641.6,182.0 641.8,182.0 642.0,182.0 642.1,182.0 642.3,182.0 642.5,182.0 642.6,182.0 642.8,182.0 642.9,182.0 643.1,182.0 643.3,182.0 643.4,182.0 643.6,182.0 643.8,182.0 643.9,182.0 644.1,182.0 644.3,182.0 644.4,182.0 644.6,182.0 644.7,182.0 644.9,182.0 645.1,182.0 645.2,182.0 645.4,182.0 645.6,182.0 645.7,182.0 645.9,182.0 646.1,182.0 646.2,182.0 646.4,182.0 646.5,182.0 646.7,182.0 646.9,182.0 647.0,182.0 647.2,182.0 647.4,182.0 647.5,182.0 647.7,182.0 647.9,182.0 648.0,182.0 648.2,182.0 648.3,182.0 648.5,182.0 648.7,182.0 648.8,182.0 649.0,182.0 649.2,182.0 649.3,182.0 649.5,182.0 649.7,182.0 649.8,182.0 650.0,182.0 650.1,182.0 650.3,182.0 650.5,182.0 650.6,182.0 650.8,182.0 651.0,182.0 651.1,182.0 651.3,182.0 651.5,182.0 651.6,182.0 651.8,182.0 651.9,182.0 652.1,182.0 652.3,182.0 652.4,182.0 652.6,182.0 652.8,182.0 652.9,182.0 653.1,182.0 653.3,182.0 653.4,182.0 653.6,182.0 653.7,182.0 653.9,182.0 654.1,182.0 654.2,182.0 654.4,182.0 654.6,182.0 654.7,182.0 654.9,182.0 655.1,182.0 655.2,182.0 655.4,182.0 655.5,182.0 655.7,182.0 655.9,182.0 656.0,182.0 656.2,182.0 656.4,182.0 656.5,182.0 656.7,182.0 656.9,182.0 657.0,182.0 657.2,182.0 657.3,182.0 657.5,182.0 657.7,182.0 657.8,182.0 658.0,182.0 658.2,182.0 658.3,182.0 658.5,182.0 658.7,182.0 658.8,182.0 659.0,182.0 659.1,182.0 659.3,182.0 659.5,182.0 659.6,182.0 659.8,182.0 660.0,182.0 660.1,182.0 660.3,182.0 660.5,182.0 660.6,182.0 660.8,182.0 661.0,182.0 661.1,182.0 661.3,182.0 661.4,182.0 661.6,182.0 661.8,182.0 661.9,182.0 662.1,182.0 662.3,182.0 662.4,182.0 662.6,182.0 662.8,182.0 662.9,182.0 663.1,182.0 663.2,182.0 663.4,182.0 663.6,182.0 663.7,182.0 663.9,182.0 664.1,182.0 664.2,182.0 664.4,182.0 664.6,182.0 664.7,182.0 664.9,182.0 665.0,182.0 665.2,182.0 665.4,182.0 665.5,182.0 665.7,182.0 665.9,182.0 666.0,182.0 666.2,182.0 666.4,182.0 666.5,182.0 666.7,182.0 666.8,182.0 667.0,182.0 667.2,182.0 667.3,182.0 667.5,182.0 667.7,182.0 667.8,182.0 668.0,182.0 668.2,182.0 668.3,182.0 668.5,182.0 668.6,182.0 668.8,182.0 669.0,182.0 669.1,182.0 669.3,182.0 669.5,182.0 669.6,182.0 669.8,182.0 670.0,182.0 670.1,182.0 670.3,182.0 670.4,182.0 670.6,182.0 670.8,182.0 670.9,182.0 671.1,182.0 671.3,182.0 671.4,182.0 671.6,182.0 671.8,182.0 671.9,182.0 672.1,182.0 672.2,182.0 672.4,182.0 672.6,182.0 672.7,182.0 672.9,182.0 673.1,182.0 673.2,182.0 673.4,182.0 673.6,182.0 673.7,182.0 673.9,182.0 674.0,182.0 674.2,182.0 674.4,182.0 674.5,182.0 674.7,182.0 674.9,182.0 675.0,182.0 675.2,182.0 675.4,182.0 675.5,182.0 675.7,182.0 675.8,182.0 676.0,182.0 676.2,182.0 676.3,182.0 676.5,182.0 676.7,182.0 676.8,182.0 677.0,182.0 677.2,182.0 677.3,182.0 677.5,182.0 677.6,182.0 677.8,182.0 678.0,182.0 678.1,182.0 678.3,182.0 678.5,182.0 678.6,182.0 678.8,182.0 679.0,182.0 679.1,182.0 679.3,182.0 679.4,182.0 679.6,182.0 679.8,182.0 679.9,182.0 680.1,182.0 680.3,182.0 680.4,182.0 680.6,182.0 680.8,182.0 680.9,182.0 681.1,182.0 681.2,182.0 681.4,182.0 681.6,182.0 681.7,182.0 681.9,182.0 682.1,182.0 682.2,182.0 682.4,182.0 682.6,182.0 682.7,182.0 682.9,182.0 683.0,182.0 683.2,182.0 683.4,182.0 683.5,182.0 683.7,182.0 683.9,182.0 684.0,182.0 684.2,182.0 684.4,182.0 684.5,182.0 684.7,182.0 684.8,182.0 685.0,182.0 685.2,182.0 685.3,182.0 685.5,182.0 685.7,182.0 685.8,182.0 686.0,182.0 686.2,182.0 686.3,182.0 686.5,182.0 686.6,182.0 686.8,182.0 687.0,182.0 687.1,182.0 687.3,182.0 687.5,182.0 687.6,182.0 687.8,182.0 688.0,182.0 688.1,182.0 688.3,182.0 688.4,182.0 688.6,182.0 688.8,182.0 688.9,182.0 689.1,182.0 689.3,182.0 689.4,182.0 689.6,182.0 689.8,182.0 689.9,182.0 690.1,182.0 690.2,182.0 690.4,182.0 690.6,182.0 690.7,182.0 690.9,182.0 691.1,182.0 691.2,182.0 691.4,182.0 691.6,182.0 691.7,182.0 691.9,182.0 692.0,182.0 692.2,182.0 692.4,182.0 692.5,182.0 692.7,182.0 692.9,182.0 693.0,182.0 693.2,182.0 693.4,182.0 693.5,182.0 693.7,182.0 693.8,182.0 694.0,182.0 694.2,182.0 694.3,182.0 694.5,182.0 694.7,182.0 694.8,182.0 695.0,182.0 695.2,182.0 695.3,182.0 695.5,182.0 695.6,182.0 695.8,182.0 696.0,182.0 696.1,182.0 696.3,182.0 696.5,182.0 696.6,182.0 696.8,182.0 697.0,182.0 697.1,182.0 697.3,182.0 697.4,182.0 697.6,182.0 697.8,182.0 697.9,182.0 698.1,182.0 698.3,182.0 698.4,182.0 698.6,182.0 698.8,182.0 698.9,182.0 699.1,182.0 699.2,182.0 699.4,182.0 699.6,182.0 699.7,182.0 699.9,182.0 700.1,182.0 700.2,182.0 700.4,182.0 700.6,182.0 700.7,182.0 700.9,182.0 701.0,182.0 701.2,182.0 701.4,182.0 701.5,182.0 701.7,182.0 701.9,182.0 702.0,182.0 702.2,182.0 702.4,182.0 702.5,182.0 702.7,182.0 702.8,182.0 703.0,182.0 703.2,182.0 703.3,182.0 703.5,182.0 703.7,182.0 703.8,182.0 704.0,182.0 704.2,182.0 704.3,182.0 704.5,182.0 704.6,182.0 704.8,182.0 705.0,182.0 705.1,182.0 705.3,182.0 705.5,182.0 705.6,182.0 705.8,182.0 706.0,182.0 706.1,182.0 706.3,182.0 706.4,182.0 706.6,182.0 706.8,182.0 706.9,182.0 707.1,182.0 707.3,182.0 707.4,182.0 707.6,182.0 707.8,182.0 707.9,182.0 708.1,182.0 708.2,182.0 708.4,182.0 708.6,182.0 708.7,182.0 708.9,182.0 709.1,182.0 709.2,182.0 709.4,182.0 709.6,182.0 709.7,182.0 709.9,182.0 710.0,182.0 710.2,182.0 710.4,182.0 710.5,182.0 710.7,182.0 710.9,182.0 711.0,182.0 711.2,182.0 711.4,182.0 711.5,182.0 711.7,182.0 711.8,182.0 712.0,182.0 712.2,182.0 712.3,182.0 712.5,182.0 712.7,182.0 712.8,182.0 713.0,182.0 713.2,182.0 713.3,182.0 713.5,182.0 713.6,182.0 713.8,182.0 714.0,182.0 714.1,182.0 714.3,182.0 714.5,182.0 714.6,182.0 714.8,182.0 715.0,182.0 715.1,182.0 715.3,182.0 715.4,182.0 715.6,182.0 715.8,182.0 715.9,182.0 716.1,182.0 716.3,182.0 716.4,182.0 716.6,182.0 716.8,182.0 716.9,182.0 717.1,182.0 717.2,182.0 717.4,182.0 717.6,182.0 717.7,182.0 717.9,182.0 718.1,182.0 718.2,182.0 718.4,182.0 718.6,182.0 718.7,182.0 718.9,182.0 719.0,182.0 719.2,182.0 719.4,182.0 719.5,182.0 719.7,182.0 719.9,182.0 720.0,182.0 720.2,182.0 720.4,182.0 720.5,182.0 720.7,182.0 720.8,182.0 721.0,182.0 721.2,182.0 721.3,182.0 721.5,182.0 721.7,182.0 721.8,182.0 722.0,182.0 722.2,182.0 722.3,182.0 722.5,182.0 722.6,182.0 722.8,182.0 723.0,182.0 723.1,182.0 723.3,182.0 723.5,182.0 723.6,182.0 723.8,182.0 724.0,182.0 724.1,182.0 724.3,182.0 724.4,182.0 724.6,182.0 724.8,182.0 724.9,182.0 725.1,182.0 725.3,182.0 725.4,182.0 725.6,182.0 725.8,182.0 725.9,182.0 726.1,182.0 726.2,182.0 726.4,182.0 726.6,182.0 726.7,182.0 726.9,182.0 727.1,182.0 727.2,182.0 727.4,182.0 727.6,182.0 727.7,182.0 727.9,182.0 728.0,182.0 728.2,182.0 728.4,182.0 728.5,182.0 728.7,182.0 728.9,182.0 729.0,182.0 729.2,182.0 729.4,182.0 729.5,182.0 729.7,182.0 729.8,182.0 730.0,182.0 730.2,182.0 730.3,182.0 730.5,182.0 730.7,182.0 730.8,182.0 731.0,182.0 731.2,182.0 731.3,182.0 731.5,182.0 731.6,182.0 731.8,182.0 732.0,182.0 732.1,182.0 732.3,182.0 732.5,182.0 732.6,182.0 732.8,182.0 733.0,182.0 733.1,182.0 733.3,182.0 733.4,182.0 733.6,182.0 733.8,182.0 733.9,182.0 734.1,182.0 734.3,182.0 734.4,182.0 734.6,182.0 734.8,182.0 734.9,182.0 735.1,182.0 735.2,182.0 735.4,182.0 735.6,182.0 735.7,182.0 735.9,182.0 736.1,182.0 736.2,182.0 736.4,182.0 736.6,182.0 736.7,182.0 736.9,182.0 737.0,182.0 737.2,182.0 737.4,182.0 737.5,182.0 737.7,182.0 737.9,182.0 738.0,182.0 738.2,182.0 738.4,182.0 738.5,182.0 738.7,182.0 738.8,182.0 739.0,182.0 739.2,182.0 739.3,182.0 739.5,182.0 739.7,182.0 739.8,182.0 740.0,182.0 740.2,182.0 740.3,182.0 740.5,182.0 740.6,182.0 740.8,182.0 741.0,182.0 741.1,182.0 741.3,182.0 741.5,182.0 741.6,182.0 741.8,182.0 742.0,182.0 742.1,182.0 742.3,182.0 742.4,182.0 742.6,182.0 742.8,182.0 742.9,182.0 743.1,182.0 743.3,182.0 743.4,182.0 743.6,182.0 743.8,182.0 743.9,182.0 744.1,182.0 744.3,182.0 744.4,182.0 744.6,182.0 744.7,182.0 744.9,182.0 745.1,182.0 745.2,182.0 745.4,182.0 745.6,182.0 745.7,182.0 745.9,182.0 746.1,182.0 746.2,182.0 746.4,182.0 746.5,182.0 746.7,182.0 746.9,182.0 747.0,182.0 747.2,182.0 747.4,182.0 747.5,182.0 747.7,182.0 747.9,182.0 748.0,182.0 748.2,182.0 748.3,182.0 748.5,182.0 748.7,182.0 748.8,182.0 749.0,182.0 749.2,182.0 749.3,182.0 749.5,182.0 749.7,182.0 749.8,182.0 750.0,182.0 750.1,182.0 750.3,182.0 750.5,182.0 750.6,182.0 750.8,182.0 751.0,182.0 751.1,182.0 751.3,182.0 751.5,182.0 751.6,182.0 751.8,182.0 751.9,182.0 752.1,182.0 752.3,182.0 752.4,182.0 752.6,182.0 752.8,182.0 752.9,182.0 753.1,182.0 753.3,182.0 753.4,182.0 753.6,182.0 753.7,182.0 753.9,182.0 754.1,182.0 754.2,182.0 754.4,182.0 754.6,182.0 754.7,182.0 754.9,182.0 755.1,182.0 755.2,182.0 755.4,182.0 755.5,182.0 755.7,182.0 755.9,182.0 756.0,182.0 756.2,182.0 756.4,182.0 756.5,182.0 756.7,182.0 756.9,182.0 757.0,182.0 757.2,182.0 757.3,182.0 757.5,182.0 757.7,182.0 757.8,182.0 758.0,182.0 758.2,182.0 758.3,182.0 758.5,182.0 758.7,182.0 758.8,182.0 759.0,182.0 759.1,182.0 759.3,182.0 759.5,182.0 759.6,182.0 759.8,182.0 760.0,182.0 760.1,182.0 760.3,182.0 760.5,182.0 760.6,182.0 760.8,182.0 760.9,182.0 761.1,182.0 761.3,182.0 761.4,182.0 761.6,182.0 761.8,182.0 761.9,182.0 762.1,182.0 762.3,182.0 762.4,182.0 762.6,182.0 762.7,182.0 762.9,182.0 763.1,182.0 763.2,182.0 763.4,182.0 763.6,182.0 763.7,182.0 763.9,182.0 764.1,182.0 764.2,182.0 764.4,182.0 764.5,182.0 764.7,182.0 764.9,182.0 765.0,182.0 765.2,182.0 765.4,182.0 765.5,182.0 765.7,182.0 765.9,182.0 766.0,182.0 766.2,182.0 766.3,182.0 766.5,182.0 766.7,182.0 766.8,182.0 767.0,182.0 767.2,182.0 767.3,182.0 767.5,182.0 767.7,182.0 767.8,182.0 768.0,182.0 768.1,182.0 768.3,182.0 768.5,182.0 768.6,182.0 768.8,182.0 769.0,182.0 769.1,182.0 769.3,182.0 769.5,182.0 769.6,182.0 769.8,182.0 769.9,182.0 770.1,182.0 770.3,182.0 770.4,182.0 770.6,182.0 770.8,182.0 770.9,182.0 771.1,182.0 771.3,182.0 771.4,182.0 771.6,182.0 771.7,182.0 771.9,182.0 772.1,182.0 772.2,182.0 772.4,182.0 772.6,182.0 772.7,182.0 772.9,182.0 773.1,182.0 773.2,182.0 773.4,182.0 773.5,182.0 773.7,182.0 773.9,182.0 774.0,182.0 774.2,182.0 774.4,182.0 774.5,182.0 774.7,182.0 774.9,182.0 775.0,182.0 775.2,182.0 775.3,182.0 775.5,182.0 775.7,182.0 775.8,182.0 776.0,182.0 776.2,182.0 776.3,182.0 776.5,182.0 776.7,182.0 776.8,182.0 777.0,182.0 777.1,182.0 777.3,182.0 777.5,182.0 777.6,182.0 777.8,182.0 778.0,182.0 778.1,182.0 778.3,182.0 778.5,182.0 778.6,182.0 778.8,182.0 778.9,182.0 779.1,182.0 779.3,182.0 779.4,182.0 779.6,182.0 779.8,182.0 779.9,182.0 780.1,182.0 780.3,182.0 780.4,182.0 780.6,182.0 780.7,182.0 780.9,182.0 781.1,182.0 781.2,182.0 781.4,182.0 781.6,182.0 781.7,182.0 781.9,182.0 782.1,182.0 782.2,182.0 782.4,182.0 782.5,182.0 782.7,182.0 782.9,182.0 783.0,182.0 783.2,182.0 783.4,182.0 783.5,182.0 783.7,182.0 783.9,182.0 784.0,182.0 784.2,182.0 784.3,182.0 784.5,182.0 784.7,182.0 784.8,182.0 785.0,182.0" fill="none" stroke="#4a90d9" stroke-width="1.5" stroke-linejoin="round"/>
  <text x="209.5" y="214" text-anchor="middle" font-size="11" fill="#6b7280">n / N</text>
  <text x="617.5" y="214" text-anchor="middle" font-size="11" fill="#6b7280">Normalized frequency (× Fₛ)</text>
</svg>
